<svg width="18" height="18" viewBox="0 0 18 18" fill="none" xmlns="http://www.w3.org/2000/svg">
<g id="ant-design:star-filled">
<path id="Vector" d="M15.9628 6.20694L11.4997 5.55831L9.5046 1.51358C9.45011 1.40284 9.36046 1.31319 9.24972 1.2587C8.97198 1.12159 8.63448 1.23585 8.49562 1.51358L6.5005 5.55831L2.03741 6.20694C1.91437 6.22452 1.80187 6.28253 1.71573 6.37042C1.6116 6.47744 1.55422 6.62143 1.5562 6.77074C1.55818 6.92006 1.61935 7.06247 1.72628 7.16671L4.95538 10.3149L4.19249 14.7605C4.1746 14.8639 4.18605 14.9702 4.22553 15.0675C4.265 15.1647 4.33094 15.2489 4.41585 15.3106C4.50077 15.3723 4.60127 15.4089 4.70595 15.4164C4.81063 15.4239 4.91531 15.4018 5.00812 15.3528L9.00011 13.254L12.9921 15.3528C13.1011 15.4108 13.2277 15.4302 13.3489 15.4091C13.6548 15.3564 13.8605 15.0663 13.8077 14.7605L13.0448 10.3149L16.2739 7.16671C16.3618 7.08057 16.4198 6.96807 16.4374 6.84503C16.4849 6.53741 16.2704 6.25264 15.9628 6.20694Z" fill="#6CB981"/>
</g>
</svg>
